# xmcd
#
# Track frame offsets: 
#        150
#        16903
#        31506
#        45044
#        63328
#        80611
#        97947
#        116438
#        130688
#        145629
#        165697
#        185436
#        194747
#
# Disc length: 2772 seconds
#
# Revision: 0
# Processed by: cddbd v1.5.2PL0 Copyright (c) Steve Scherf et al.
# Submitted via: ExactAudioCopyFreeDBPlugin 1.0
#
DISCID=980ad20d
DTITLE=Natalie Padilla - Paths and Places
DYEAR=2016
DGENRE=Bluegrass
TTITLE0=Sailor's Love
TTITLE1=Seedskadee
TTITLE2=Paths and Places
TTITLE3=Erin's Waltz
TTITLE4=Chopping the Scallions
TTITLE5=Immortal, Invisible
TTITLE6=Rose of Sharon - Dan McKay's - Little Belt Creek
TTITLE7=Fifty-Eight Years
TTITLE8=Tears for Gold
TTITLE9=Leap Year
TTITLE10=Peace of Mind
TTITLE11=Savanna Smiles
TTITLE12=Light the Fire
EXTD=
EXTT0=
EXTT1=
EXTT2=
EXTT3=
EXTT4=
EXTT5=
EXTT6=
EXTT7=
EXTT8=
EXTT9=
EXTT10=
EXTT11=
EXTT12=
PLAYORDER=
